<svg xmlns="http://www.w3.org/2000/svg" width="112" height="28" fill="none"><path fill-rule="evenodd" clip-rule="evenodd" d="M39.876 0c-1.193 0-2 .861-2 2.14v7.709a6.395 6.395 0 0 0-4.388-1.746c-5.39 0-8.21 5.002-8.21 9.939 0 4.935 2.82 9.934 8.21 9.934 1.956 0 3.445-.57 4.468-1.673.175 1.005.882 1.673 1.92 1.673 1.192 0 1.996-.86 1.996-2.142V2.14C41.872.861 41.068 0 39.876 0ZM29.268 18.042c0-2.902 1.17-6.283 4.462-6.283 3.294 0 4.455 3.38 4.455 6.283 0 2.9-1.161 6.276-4.455 6.276-3.293 0-4.462-3.375-4.462-6.276Zm58.657-6.283c1.05 0 1.606.27 2.138.537.44.216.887.434 1.496.434 1.03 0 1.717-.93 1.717-1.793 0-1.693-2.148-2.834-5.35-2.834-5.98 0-8.655 4.993-8.655 9.939 0 4.945 2.676 9.934 8.654 9.934 3.444 0 5.25-1.46 5.25-2.902 0-1.072-.666-1.792-1.651-1.792-.508 0-.894.207-1.304.427-.55.287-1.157.609-2.295.609-3.682 0-4.663-3.945-4.663-6.276 0-2.335.98-6.283 4.663-6.283ZM16.566 3.923c-.304-.81-.86-2.282-2.587-2.282-1.714 0-2.254 1.397-2.577 2.238-.012.026-2.857 7.81-5.093 13.916h-4.28C.535 17.795 0 18.76 0 19.586c0 .86.537 1.78 2.03 1.78h2.983C4.222 23.513 3.69 24.97 3.69 24.97c-.132.328-.283.862-.283 1.3 0 .862.628 1.731 1.831 1.731 1.263 0 1.673-.844 1.97-1.455l.068-.137 1.596-4.428.217-.613h4.931c1.499 0 2.033-.921 2.033-1.781 0-.826-.534-1.79-2.033-1.79H10.37c.952-2.648 2.661-7.394 3.61-10.022 1.01 2.807 4.287 11.931 4.294 11.934 0 .007.801 2.264.801 2.264 0 .008 1.581 4.396 1.581 4.396.206.536.614 1.632 2.052 1.632 1.208 0 1.835-.87 1.835-1.73 0-.439-.152-.97-.297-1.325.01.024-7.68-21.022-7.68-21.022Zm55.515 7.836c1.05 0 1.608.27 2.138.537.439.216.886.434 1.496.434 1.029 0 1.717-.93 1.717-1.793 0-1.693-2.15-2.834-5.351-2.834-5.977 0-8.65 4.993-8.65 9.939 0 4.945 2.673 9.934 8.65 9.934 3.454 0 5.257-1.46 5.257-2.902 0-1.072-.664-1.792-1.659-1.792-.502 0-.896.207-1.298.427-.546.287-1.16.609-2.3.609-3.677 0-4.657-3.945-4.657-6.276 0-2.335.98-6.283 4.657-6.283Zm31.477-3.656c-5.544 0-8.448 5.002-8.448 9.939 0 4.935 2.904 9.934 8.448 9.934 5.542 0 8.442-5 8.442-9.934 0-4.937-2.9-9.939-8.442-9.939Zm0 16.215c-3.288 0-4.453-3.375-4.453-6.276 0-2.902 1.165-6.283 4.453-6.283 3.3 0 4.466 3.38 4.466 6.283 0 2.9-1.166 6.276-4.466 6.276Zm-42.21-6.724c0-4.666-3.096-9.49-8.286-9.49-5.653 0-8.616 5.001-8.616 9.938 0 4.583 2.307 9.934 8.787 9.934 3.541 0 7.735-2.325 7.735-4.288 0-1.208-.818-1.86-1.584-1.86-.558 0-1.028.37-1.566.797-.896.719-2.128 1.693-4.548 1.693-2.728 0-4.584-1.828-4.795-4.588h10.703c1.481 0 2.17-.68 2.17-2.136Zm-12.874-1.17c.162-1.6.933-4.803 4.578-4.665 2.91 0 4.095 2.627 4.266 4.666h-8.844Z" fill="#D01E29"/></svg>
